<?xml version="1.0" encoding="UTF-8"?>
<svg width="752pt" height="752pt" version="1.1" viewBox="0 0 752 752" xmlns="http://www.w3.org/2000/svg">
 <path d="m376 205.81c-45.137 0-88.426 17.93-120.34 49.848s-49.848 75.207-49.848 120.34c0 45.141 17.93 88.43 49.848 120.34 31.918 31.918 75.207 49.852 120.34 49.852 45.141 0 88.43-17.934 120.34-49.852 31.918-31.914 49.852-75.203 49.852-120.34 0-45.137-17.934-88.426-49.852-120.34-31.914-31.918-75.203-49.848-120.34-49.848zm0 83.059c23.109 0 45.273 9.1797 61.617 25.52 16.34 16.34 25.52 38.504 25.52 61.613s-9.1797 45.273-25.52 61.617c-16.344 16.34-38.508 25.52-61.617 25.52s-45.273-9.1797-61.613-25.52c-16.34-16.344-25.52-38.508-25.52-61.617s9.1797-45.273 25.52-61.613c16.34-16.34 38.504-25.52 61.613-25.52z"/>
</svg>
