<?xml version="1.0" encoding="UTF-8"?>
<svg width="752pt" height="752pt" version="1.1" viewBox="0 0 752 752" xmlns="http://www.w3.org/2000/svg">
 <path d="m517.34 496.32c2.8008 2.7773 4.3789 6.5625 4.3789 10.508s-1.5781 7.7305-4.3789 10.508c-2.793 2.7695-6.5742 4.3125-10.508 4.293-3.9336 0.019532-7.7148-1.5234-10.508-4.293l-120.32-120.47-120.32 120.47c-2.793 2.7695-6.5742 4.3125-10.508 4.293-3.9336 0.019532-7.7148-1.5234-10.508-4.293-2.8008-2.7773-4.3789-6.5625-4.3789-10.508s1.5781-7.7305 4.3789-10.508l120.46-120.32-120.46-120.32c-3.7539-3.7539-5.2227-9.2266-3.8477-14.355s5.3789-9.1328 10.508-10.508 10.602 0.09375 14.355 3.8477l120.32 120.46 120.32-120.47v0.003907c3.7539-3.7539 9.2266-5.2227 14.355-3.8477 5.125 1.375 9.1328 5.3789 10.508 10.508 1.3711 5.1289-0.09375 10.602-3.8477 14.355l-120.47 120.32z"/>
</svg>
